<svg width="28" height="28" viewBox="0 0 28 28" fill="none" xmlns="http://www.w3.org/2000/svg">
<path d="M27.3226 5.73804C26.8881 4.61518 26.2617 3.59764 25.4784 2.74241C24.6945 1.88462 23.7702 1.20295 22.7558 0.734463C21.704 0.246742 20.5759 -0.0029008 19.4369 2.54299e-05C17.8391 2.54299e-05 16.2801 0.488444 14.9253 1.41101C14.6012 1.63171 14.2933 1.87411 14.0016 2.13822C13.7099 1.87411 13.402 1.63171 13.0779 1.41101C11.7231 0.488444 10.1641 2.54299e-05 8.56626 2.54299e-05C7.41566 2.54299e-05 6.30072 0.246044 5.24736 0.734463C4.22965 1.20479 3.31242 1.88134 2.52483 2.74241C1.74047 3.59668 1.1139 4.61445 0.680633 5.73804C0.230119 6.90663 0 8.14758 0 9.4247C0 10.6295 0.220396 11.8849 0.657946 13.162C1.02419 14.2293 1.54925 15.3364 2.22016 16.4543C3.28325 18.2235 4.74499 20.0686 6.56001 21.9391C9.56776 25.0396 12.5463 27.1814 12.6727 27.2683L13.4409 27.8182C13.7812 28.0606 14.2188 28.0606 14.5591 27.8182L15.3272 27.2683C15.4536 27.1778 18.429 25.0396 21.44 21.9391C23.255 20.0686 24.7167 18.2235 25.7798 16.4543C26.4507 15.3364 26.979 14.2293 27.342 13.162C27.7796 11.8849 28 10.6295 28 9.4247C28.0032 8.14758 27.7731 6.90663 27.3226 5.73804Z" fill="#EB2929"/>
<defs>
<radialGradient id="paint0_radial" cx="0" cy="0" r="1" gradientUnits="userSpaceOnUse" gradientTransform="translate(28) rotate(135) scale(39.598)">
<stop stop-color="#E31647"/>
<stop offset="1" stop-color="#EB2929"/>
</radialGradient>
</defs>
</svg>
