<svg width="28" height="28" viewBox="0 0 28 28" fill="none" xmlns="http://www.w3.org/2000/svg">
<path d="M20.9124 0.875L15.3999 9.1875H18.1562L23.6686 0.875H20.9124Z" fill="#428BC1"/>
<path d="M18.1563 0.875L12.6001 9.1875H15.4001L20.9126 0.875H18.1563Z" fill="#E8E8E8"/>
<path d="M15.4 0.875L9.84375 9.1875H12.6L18.1562 0.875H15.4Z" fill="#ED4C5C"/>
<path d="M8.9251 7.35C8.6626 7.35 8.44385 7.56875 8.44385 7.83125V11.9875C8.44385 12.25 8.6626 12.4687 8.9251 12.4687H19.0751C19.3376 12.4687 19.5563 12.25 19.5563 11.9875V7.83125C19.5563 7.56875 19.3376 7.35 19.0751 7.35H8.9251ZM18.5938 10.5437C18.5938 10.8062 18.3751 11.025 18.1126 11.025H9.8001C9.5376 11.025 9.31885 10.8062 9.31885 10.5437V8.70625C9.31885 8.44375 9.5376 8.225 9.8001 8.225H18.1126C18.3751 8.225 18.5938 8.44375 18.5938 8.70625V10.5437Z" fill="#FFC200"/>
<path d="M9.84404 9.1875H12.6003L7.08779 0.875H4.33154L9.84404 9.1875Z" fill="#ED4C5C"/>
<path d="M12.5999 9.1875H15.3999L9.84365 0.875H7.0874L12.5999 9.1875Z" fill="#E8E8E8"/>
<path opacity="0.5" d="M14.4815 2.27499L13.0815 4.33124L16.319 9.18749H18.1565L18.594 8.48749L14.4815 2.27499Z" fill="#3E4347"/>
<path d="M15.4 9.1875H18.1562L12.6 0.875H9.84375L15.4 9.1875Z" fill="#428BC1"/>
<path d="M14.0001 27.125C18.7601 27.125 22.6188 23.2662 22.6188 18.5062C22.6188 13.7462 18.7601 9.8875 14.0001 9.8875C9.24009 9.8875 5.38135 13.7462 5.38135 18.5062C5.38135 23.2662 9.24009 27.125 14.0001 27.125Z" fill="#FFC200"/>
<path d="M14.131 10.675C9.71221 10.675 6.16846 14.2625 6.16846 18.6375C6.16846 19.95 6.47471 21.175 7.04346 22.2688C6.78096 21.3938 6.60596 20.475 6.60596 19.5125C6.60596 14.8313 10.1935 11.025 14.7872 10.675H14.131" fill="#E68A00"/>
<path d="M20.1251 13.5625C22.3563 17.5 21.2188 22.575 17.3251 25.1562C16.5376 25.6812 15.6626 26.075 14.7876 26.3375C16.0126 26.2062 17.1938 25.7687 18.2876 25.025C21.9626 22.575 22.9251 17.675 20.5188 14.0875L20.1251 13.5625Z" fill="#FFE394"/>
<path d="M14.0001 15.0063V12.2063L12.6001 16.5813L13.2126 17.3688L14.0001 15.0063Z" fill="#F2B200"/>
<path d="M14.7875 17.3688L15.4 16.5813L14 12.2063V15.0063L14.7875 17.3688Z" fill="#E68A00"/>
<path d="M15.2251 18.8125L16.2751 19.2938L19.9938 16.5813L17.2376 17.3688L15.2251 18.8125Z" fill="#C47500"/>
<path d="M17.2376 17.3688L19.9938 16.5813H15.4001L14.7876 17.3688H17.2376Z" fill="#FFE394"/>
<path d="M13.2126 17.3688L12.6001 16.5813H8.00635L10.7626 17.3688H13.2126Z" fill="#FFD252"/>
<path d="M10.7626 17.3688L8.00635 16.5813L11.6813 19.2938L12.7751 18.8125L10.7626 17.3688Z" fill="#FFDB75"/>
<path d="M15.2251 18.8125L16.0126 21.175L17.7188 23.6687L16.2751 19.2937L15.2251 18.8125Z" fill="#E68A00"/>
<path d="M14 19.7312V20.9562L17.7188 23.6687L16.0125 21.175L14 19.7312Z" fill="#F2B200"/>
<path d="M12.775 18.8125L11.6813 19.2937L10.2812 23.6687L11.9875 21.175L12.775 18.8125Z" fill="#F2B200"/>
<path d="M11.9875 21.175L10.2812 23.6687L14 20.9562V19.7312L11.9875 21.175Z" fill="#E68A00"/>
<path d="M14.7872 17.3687L13.9997 15.0062L13.2122 17.3687H10.7622L12.7747 18.8125L11.9872 21.175L13.9997 19.7312L16.0122 21.175L15.2247 18.8125L17.2372 17.3687H14.7872Z" fill="#FFCE31"/>
</svg>
